<?xml version="1.0" encoding="UTF-8" standalone="no"?>
<!DOCTYPE svg PUBLIC "-//W3C//DTD SVG 1.1//EN" "http://www.w3.org/Graphics/SVG/1.1/DTD/svg11.dtd">
<svg width="100%" height="100%" viewBox="0 0 420 606" version="1.1" xmlns="http://www.w3.org/2000/svg" xmlns:xlink="http://www.w3.org/1999/xlink" xml:space="preserve" xmlns:serif="http://www.serif.com/" style="fill-rule:evenodd;clip-rule:evenodd;stroke-linecap:round;stroke-linejoin:round;stroke-miterlimit:1.5;">
    <g transform="matrix(1,0,0,1,-1333.02,-737.961)">
        <path d="M1527.88,1024.78L1580.45,1020.92" style="fill:none;stroke:black;stroke-width:1px;"/>
        <path d="M1735.64,1006.27L1712.33,1011.51C1712.33,1011.51 1654.98,935.826 1584.05,1016.88C1513.12,1097.94 1729.72,1169.77 1712.33,1011.51" style="fill:none;stroke:black;stroke-width:6.25px;"/>
        <path d="M1369.47,1037.88L1395.48,1035.67C1395.48,1035.67 1400.43,1005.96 1435.88,996.072C1471.34,986.182 1493.62,993.32 1519,1015.68C1544.38,1038.03 1511.1,1122.94 1471.56,1113.39C1432.03,1103.83 1405.7,1121.59 1395.48,1035.67" style="fill:none;stroke:black;stroke-width:6.25px;"/>
        <path d="M1336.5,994.184C1338.41,1018.53 1346.04,1057.78 1350.98,1088.02C1355.77,1117.26 1357.79,1149.1 1366.18,1175.61C1374.19,1200.9 1386.48,1226.9 1401.32,1247.03C1415.77,1266.63 1437.7,1282.92 1455.21,1296.35C1471.08,1308.51 1494.08,1320.63 1506.41,1327.57C1513.68,1331.66 1521.05,1336.12 1529.19,1337.96C1538.51,1340.09 1551.29,1341.05 1562.34,1340.29C1574.13,1339.47 1588.26,1336.61 1599.91,1333.07C1611.14,1329.66 1622.84,1326.13 1632.22,1319.08C1644.37,1309.93 1661.92,1291.32 1672.83,1278.21C1682.47,1266.63 1688.94,1252.62 1697.67,1240.43C1706.36,1228.29 1718.23,1216.81 1725.19,1205.09C1731.62,1194.28 1736.36,1180.12 1739.45,1170.13C1741.94,1162.08 1742.69,1153.57 1743.73,1145.2C1745.35,1132.1 1749.19,1105.84 1749.22,1091.51C1749.24,1080.59 1746.19,1069.86 1743.87,1059.19C1741.37,1047.68 1737.15,1033.6 1734.18,1022.43C1731.5,1012.32 1729.85,1002.95 1728.71,992.554C1727.45,981.142 1727.16,966.676 1726.65,953.958C1726.09,939.648 1724.86,921.686 1722.65,906.28C1720.48,891.199 1718.66,875.296 1713.39,861.521C1708.15,847.823 1699.59,835.543 1691.03,823.631C1682.17,811.301 1672.22,797.887 1660.26,787.542C1648.22,777.126 1633.37,768.644 1618.81,761.131C1604.19,753.588 1588.96,745.098 1572.55,742.282C1555.85,739.415 1535.26,742.409 1518.59,743.933C1503.08,745.349 1487.08,746.006 1472.48,751.425C1457.72,756.905 1442.2,768.352 1430.04,776.809C1419.17,784.362 1408.3,793.398 1399.49,802.164C1391.16,810.446 1383.02,819.235 1377.14,829.407C1370.06,841.691 1362.27,862.143 1356.95,875.866C1352.41,887.595 1348.17,900.731 1345.26,911.743C1342.65,921.648 1340.62,931.75 1339.54,941.937C1338.08,955.677 1335.14,976.792 1336.5,994.184Z" style="fill:none;stroke:black;stroke-width:6.25px;"/>
    </g>
</svg>
