<?xml version="1.0" encoding="UTF-8" standalone="no"?>
<!DOCTYPE svg PUBLIC "-//W3C//DTD SVG 1.1//EN" "http://www.w3.org/Graphics/SVG/1.1/DTD/svg11.dtd">
<svg xmlns="http://www.w3.org/2000/svg" xmlns:xlink="http://www.w3.org/1999/xlink" xmlns:serif="http://www.serif.com/" width="100%" height="100%" viewBox="0 0 1432 188" version="1.1" xml:space="preserve" style="fill-rule:evenodd;clip-rule:evenodd;stroke-linejoin:round;stroke-miterlimit:2;">
  <path d="M1343.87,108.404C1339.7,108.693 1335.03,108.998 1326.88,109.52C1316.75,110.171 1315.12,110.299 1308.69,110.618C1308.39,110.633 1198.68,116.248 1097.37,119.728C955.542,124.601 949.372,121.019 931.553,120.331C862.889,117.68 672.268,110.526 351.358,105.047C180.573,102.131 50.376,101.298 24.202,101.131L15.989,101.078C14.446,100.756 12.813,100.722 11.36,100.111C10.696,99.832 6.865,98.223 4.994,93.745C4.709,93.063 3.064,89.128 4.994,84.512C6.866,80.034 10.697,78.425 11.361,78.146C12.814,77.536 14.419,77.308 15.991,77.18C16.082,77.173 143.233,76.298 283.186,76.857C417.608,77.394 655.235,79.122 932.737,88.456C956.396,89.252 959.541,94.479 1232.7,82.23L1307.17,78.884C1308.72,78.813 1311.16,78.7 1317.57,78.473C1304.75,74.375 1296.38,71.682 1288.59,65.771C1257.58,42.242 1257.92,41.301 1225.11,24.636C1224.01,24.076 1222.89,23.543 1221.81,22.959C1221.52,22.808 1219.91,21.943 1218.83,20.308C1218.54,19.873 1216.85,17.32 1217.83,13.872C1217.97,13.371 1218.8,10.424 1222.06,8.92C1224.6,7.744 1226.9,8.346 1227.31,8.452C1228.63,8.799 1228.54,9.027 1242.98,15.334C1243.05,15.364 1250.69,18.578 1262.06,23.094C1271.77,26.953 1289.88,33.716 1308.42,40.174C1364.92,59.861 1418.65,76.351 1420.16,76.897C1422.42,77.717 1423.85,78.864 1424.13,79.092C1428.89,82.908 1429.06,88.119 1429.09,89.005C1429.29,95.112 1425.44,98.644 1424.79,99.245C1422.19,101.626 1419.29,102.293 1418.76,102.415C1417.76,102.644 1417.47,102.656 1413.18,102.98C1412.93,106.776 1410.42,108.839 1409.98,109.199C1408.8,110.163 1407.6,110.597 1407.37,110.678C1406.48,111.001 1404.37,111.317 1399.79,112.262C1398.72,116.044 1396.09,118.047 1395.58,118.433C1393.11,120.317 1392.97,120.108 1389.95,120.877C1369.25,126.154 1358.31,125.552 1308.09,147.694C1275.18,162.208 1238.06,181.033 1237.63,181.207C1235.97,181.881 1236.01,182.029 1234.24,182.259C1233.55,182.348 1229.52,182.872 1225.96,179.704C1225.45,179.243 1222.41,176.536 1222.49,171.779C1222.54,168.063 1224.58,165.651 1224.94,165.224C1225.38,164.7 1226.16,163.781 1231.55,159.775C1258.31,139.909 1303.21,121.159 1343.87,108.404Z" 
  style="fill:rgb(250,127,127);"/>
</svg>
